# xmcd
#
# Track frame offsets: 
#        150
#        12287
#        24575
#        37525
#        49927
#        61590
#        73955
#        84710
#        96152
#        108515
#        121750
#        134967
#        146532
#        159902
#        172402
#        185297
#        197375
#        210880
#        223170
#        236435
#        249972
#        261972
#        275157
#        286752
#        301470
#        314945
#        328242
#        340170
#
# Disc length: 4712 seconds
#
# Revision: 4
# Processed by: cddbd v1.5.2PL0 Copyright (c) Steve Scherf et al.
# Submitted via: ExactAudioCopy v1.1
#
DISCID=a412661c
DTITLE=Floyd Tillman - I Love You So Much It Hurts_CD3
DYEAR=2004
DGENRE=Country
TTITLE0=You're Not Worth The Teardrops 
TTITLE1=Sentenced To A Life (Without You) 
TTITLE2=I'm Checkin' Out On You 
TTITLE3=There's Blood On The Moon Tonight 
TTITLE4=It's Got Me Down 
TTITLE5=Please Don't Pass Me By 
TTITLE6=Cold, Cold Woman 
TTITLE7=I'll Take What I Can Get 
TTITLE8=I Love You So Much It Hurts 
TTITLE9=Drinking And Thinking 
TTITLE10=Gals Are Funny That Way 
TTITLE11=Houston Waltz 
TTITLE12=Westphalia Waltz 
TTITLE13=Slipping Around 
TTITLE14=This Cold War With You 
TTITLE15=I'll Never Slip Around Again 
TTITLE16=Marge Tillman - Darling Don't Go
TTITLE17=Marge Tillman - Mama, What'll I Do
TTITLE18=I Gotta Have My Baby Back 
TTITLE19=It Had To Be That Way 
TTITLE20=I Almost Lost My Mind 
TTITLE21=Precious Memory 
TTITLE22=Marge Tillman - I Gotta Stop
TTITLE23=Marge Tillman - The Little Miracle
TTITLE24=The Last Straw 
TTITLE25=Just As Long As I Have You 
TTITLE26=The Grandest Prize 
TTITLE27=I've Got The Craziest Feeling 
EXTD=YEAR: 2004
EXTT0=
EXTT1=
EXTT2=
EXTT3=
EXTT4=
EXTT5=
EXTT6=
EXTT7=
EXTT8=
EXTT9=
EXTT10=
EXTT11=
EXTT12=
EXTT13=
EXTT14=
EXTT15=
EXTT16=
EXTT17=
EXTT18=
EXTT19=
EXTT20=
EXTT21=
EXTT22=
EXTT23=
EXTT24=
EXTT25=
EXTT26=
EXTT27=
PLAYORDER=
